<svg width="31" height="31" viewBox="0 0 31 31" fill="none" xmlns="http://www.w3.org/2000/svg">
<path d="M21.75 15.2556C21.75 14.8235 21.75 14.6075 21.815 14.415C22.004 13.8555 22.5023 13.6385 23.0014 13.4111C23.5625 13.1555 23.843 13.0277 24.121 13.0052C24.4366 12.9797 24.7528 13.0477 25.0225 13.1991C25.3801 13.3997 25.6295 13.7811 25.8849 14.0912C27.0641 15.5235 27.6536 16.2398 27.8694 17.0295C28.0435 17.6668 28.0435 18.3332 27.8694 18.9705C27.5548 20.1224 26.5606 21.088 25.8247 21.9817C25.4484 22.4389 25.2601 22.6675 25.0225 22.8009C24.7528 22.9522 24.4366 23.0202 24.121 22.9947C23.843 22.9722 23.5625 22.8445 23.0014 22.5889C22.5023 22.3615 22.004 22.1445 21.815 21.585C21.75 21.3925 21.75 21.1765 21.75 20.7444V15.2556Z" stroke="white" stroke-width="1.875"/>
<path d="M9.25 15.2557C9.25 14.7117 9.23473 14.2227 8.79489 13.8402C8.63491 13.7011 8.42281 13.6045 7.99864 13.4112C7.43751 13.1557 7.15695 13.028 6.87895 13.0055C6.04489 12.938 5.59615 13.5072 5.11516 14.0915C3.93594 15.5237 3.34633 16.2398 3.13058 17.0296C2.95647 17.667 2.95647 18.3335 3.13058 18.9707C3.44525 20.1226 4.4394 21.0881 5.17526 21.982C5.63911 22.5453 6.08221 23.0593 6.87895 22.995C7.15695 22.9725 7.43751 22.8446 7.99864 22.5891C8.42281 22.3958 8.63491 22.2992 8.79489 22.1601C9.23473 21.7776 9.25 21.2887 9.25 20.7446V15.2557Z" stroke="white" stroke-width="1.875"/>
<path d="M25.5 13.625V11.75C25.5 6.91751 21.0229 3 15.5 3C9.97715 3 5.5 6.91751 5.5 11.75V13.625" stroke="white" stroke-width="1.875" stroke-linecap="round" stroke-linejoin="round"/>
<path d="M25.5 22.375C25.5 28 20.5 28 15.5 28" stroke="white" stroke-width="1.875" stroke-linecap="round" stroke-linejoin="round"/>
</svg>
