<svg width="31" height="31" viewBox="0 0 31 31" fill="none" xmlns="http://www.w3.org/2000/svg">
<path d="M26.6784 21.5442C25.858 16.6082 23.304 12.9327 21.0837 10.7737C20.4376 10.1455 20.1146 9.83141 19.401 9.54071C18.6874 9.25 18.074 9.25 16.8472 9.25H14.1527C12.926 9.25 12.3126 9.25 11.599 9.54071C10.8854 9.83141 10.5624 10.1455 9.9163 10.7737C7.69602 12.9327 5.14201 16.6082 4.32158 21.5442C3.71116 25.2167 7.09908 28 10.8854 28H20.1146C23.9009 28 27.2889 25.2167 26.6784 21.5442Z" stroke="#ECF1F8" stroke-width="1.875" stroke-linecap="round" stroke-linejoin="round"/>
<path d="M9.57077 6.05359C9.31289 5.67823 8.9391 5.16874 9.71124 5.05256C10.5049 4.93314 11.329 5.47642 12.1357 5.46526C12.8655 5.45516 13.2372 5.13149 13.6361 4.66935C14.0561 4.18271 14.7065 3 15.5 3C16.2935 3 16.9439 4.18271 17.3639 4.66935C17.7628 5.13149 18.1345 5.45516 18.8642 5.46526C19.671 5.47642 20.4951 4.93314 21.2888 5.05256C22.0609 5.16874 21.6871 5.67823 21.4293 6.05359L20.2631 7.7508C19.7644 8.47683 19.515 8.83984 18.993 9.04492C18.4711 9.25 17.7966 9.25 16.4477 9.25H14.5523C13.2034 9.25 12.5289 9.25 12.0069 9.04492C11.485 8.83984 11.2356 8.47683 10.7368 7.7508L9.57077 6.05359Z" stroke="#ECF1F8" stroke-width="1.875" stroke-linejoin="round"/>
<path d="M17.5334 16.6482C17.2631 15.6506 15.8876 14.7503 14.2365 15.4238C12.5854 16.0972 12.3231 18.2641 14.8206 18.4943C15.9494 18.5983 16.6854 18.3736 17.3591 19.0095C18.033 19.6452 18.1581 21.4135 16.4356 21.89C14.7131 22.3665 13.0075 21.622 12.8218 20.5646M15.3021 14.2408V15.1913M15.3021 22.0366V22.9908" stroke="#ECF1F8" stroke-width="1.875" stroke-linecap="round" stroke-linejoin="round"/>
</svg>
