<svg width="31" height="31" viewBox="0 0 31 31" fill="none" xmlns="http://www.w3.org/2000/svg">
<path d="M10.4976 20.5H15.4975M10.4976 14.25H20.4975" stroke="white" stroke-width="1.875" stroke-linecap="round"/>
<path d="M9.875 4.875C7.93025 4.93334 6.77077 5.1498 5.96847 5.95284C4.87012 7.05221 4.87012 8.82163 4.87012 12.3605V20.493C4.87012 24.0319 4.87012 25.8013 5.96847 26.9006C7.06682 28 8.83459 28 12.3701 28H18.6201C22.1556 28 23.9234 28 25.0218 26.9006C26.1201 25.8013 26.1201 24.0319 26.1201 20.493V12.3605C26.1201 8.82163 26.1201 7.05221 25.0218 5.95285C24.2195 5.1498 23.06 4.93334 21.1153 4.875" stroke="white" stroke-width="1.875"/>
<path d="M9.87012 5.1875C9.87012 3.97938 10.8495 3 12.0576 3H18.9326C20.1408 3 21.1201 3.97938 21.1201 5.1875C21.1201 6.39562 20.1408 7.375 18.9326 7.375H12.0576C10.8495 7.375 9.87012 6.39562 9.87012 5.1875Z" stroke="white" stroke-width="1.875" stroke-linejoin="round"/>
</svg>
