<svg width="36" height="36" viewBox="0 0 36 36" fill="none" xmlns="http://www.w3.org/2000/svg">
<g opacity="0.2">
<path d="M21 24C21 21.1716 21 19.7574 21.8787 18.8787C22.7574 18 24.1716 18 27 18C29.8284 18 31.2426 18 32.1213 18.8787C33 19.7574 33 21.1716 33 24C33 26.8284 33 28.2426 32.1213 29.1213C31.2426 30 29.8284 30 27 30C24.1716 30 22.7574 30 21.8787 29.1213C21 28.2426 21 26.8284 21 24Z" fill="#171A1F" stroke="#122B47" stroke-width="2.25"/>
<path d="M21 24V17.7939C21 12.2935 24.7736 7.62876 30 6" stroke="#122B47" stroke-width="2.25" stroke-linecap="round"/>
<path d="M3 24C3 21.1716 3 19.7574 3.87868 18.8787C4.75735 18 6.17157 18 9 18C11.8284 18 13.2426 18 14.1213 18.8787C15 19.7574 15 21.1716 15 24C15 26.8284 15 28.2426 14.1213 29.1213C13.2426 30 11.8284 30 9 30C6.17157 30 4.75735 30 3.87868 29.1213C3 28.2426 3 26.8284 3 24Z" fill="#171A1F" stroke="#122B47" stroke-width="2.25"/>
<path d="M3 24V17.7939C3 12.2935 6.77357 7.62876 12 6" stroke="#122B47" stroke-width="2.25" stroke-linecap="round"/>
</g>
</svg>
